# xmcd CD database file
#
# Track frame offsets:
#	150
#	48983
#	84841
#	113575
#	151384
#	181317
#
# Disc length: 3371 seconds
#
# Revision: 0
# Processed by: cddbd v1.5.2PL0 Copyright (c) Steve Scherf et al.
# Submitted via: CDex 1.51
#
DISCID=3a0d2906
DTITLE=Deva Premal - COLETANEA PESSOAL
DYEAR=1900
DGENRE=New Age
TTITLE0=Gate' Gate'
TTITLE1=Ide' Were' Were'
TTITLE2=Jai Radha Madhav
TTITLE3=Om Mani Padme Hum
TTITLE4=Om Namo Narayanaya
TTITLE5=Om Shree Sache' (0:00...10:00)
EXTD=
EXTT0=
EXTT1=
EXTT2=
EXTT3=
EXTT4=
EXTT5=
PLAYORDER=
